<?xml version="1.0" encoding="UTF-8"?>
<svg id="Layer_1" xmlns="http://www.w3.org/2000/svg" version="1.1" viewBox="0 0 46.747 39.486">
  <!-- Generator: Adobe Illustrator 29.3.0, SVG Export Plug-In . SVG Version: 2.1.0 Build 146)  -->
  <defs>
    <style>
      .st0 {
        fill: #1c9a89;
      }
    </style>
  </defs>
  <path class="st0" d="M46.672,26.757c-.393,9.985-10.693,14.542-17.96,11.7-5.742-1.625-11.381-6.397-16.43-7.573-3.255-.806-6.952-.484-11.029.878-.791.328-1.517-.844-1.015-1.623,5.952-10.006,17.314-9.458,25.863-4.476,7.398,3.482,12.144,6.914,19.03.245.573-.633,1.59-.062,1.54.85h0Z"/>
  <path class="st0" d="M46.672,4.77c-.393,9.985-10.693,14.542-17.96,11.7-5.742-1.625-11.381-6.397-16.43-7.573-3.255-.806-6.952-.484-11.029.878-.791.328-1.517-.844-1.015-1.623C6.191-1.854,17.553-1.306,26.102,3.676c7.398,3.482,12.144,6.914,19.03.245.573-.633,1.59-.062,1.54.85h0Z"/>
</svg>