<svg width="141" height="141" viewBox="0 0 141 141" fill="none" xmlns="http://www.w3.org/2000/svg">
<circle cx="70.5" cy="70.5" r="70" fill="#0A1E27" fill-opacity="0.05"/>
<path d="M80.0312 81.5H62.9688C61.399 81.5 60.125 80.2149 60.125 78.625V61.375C60.125 59.788 61.399 58.5 62.9688 58.5H80.0312C81.6038 58.5 82.875 59.788 82.875 61.375V78.625C82.875 80.2149 81.6038 81.5 80.0312 81.5ZM65.8125 75.75H77.1875V64.25H65.8125V75.75Z" fill="#1D9A8A"/>
<path d="M108.469 81.5H91.4062C89.8337 81.5 88.5625 80.2149 88.5625 78.625V61.375C88.5625 59.788 89.8337 58.5 91.4062 58.5H108.469C110.041 58.5 111.312 59.788 111.312 61.375V78.625C111.312 80.2149 110.041 81.5 108.469 81.5ZM94.25 75.75H105.625V64.25H94.25V75.75Z" fill="#0A1E27"/>
<path d="M51.5938 81.5H34.5312C32.9615 81.5 31.6875 80.2149 31.6875 78.625V61.375C31.6875 59.788 32.9615 58.5 34.5312 58.5H51.5938C53.1635 58.5 54.4375 59.788 54.4375 61.375V78.625C54.4375 80.2149 53.1635 81.5 51.5938 81.5ZM37.375 75.75H48.75V64.25H37.375V75.75Z" fill="#0A1E27"/>
<path d="M80.0312 52.75H62.9688C61.399 52.75 60.125 51.462 60.125 49.875V32.625C60.125 31.038 61.399 29.75 62.9688 29.75H80.0312C81.6038 29.75 82.875 31.038 82.875 32.625V49.875C82.875 51.462 81.6038 52.75 80.0312 52.75ZM65.8125 47H77.1875V35.5H65.8125V47Z" fill="#0A1E27"/>
<path d="M108.469 52.75H91.4062C89.8337 52.75 88.5625 51.462 88.5625 49.875V32.625C88.5625 31.038 89.8337 29.75 91.4062 29.75H108.469C110.041 29.75 111.312 31.038 111.312 32.625V49.875C111.312 51.462 110.041 52.75 108.469 52.75ZM94.25 47H105.625V35.5H94.25V47Z" fill="#1D9A8A"/>
<path d="M51.5938 52.75H34.5312C32.9615 52.75 31.6875 51.462 31.6875 49.875V32.625C31.6875 31.038 32.9615 29.75 34.5312 29.75H51.5938C53.1635 29.75 54.4375 31.038 54.4375 32.625V49.875C54.4375 51.462 53.1635 52.75 51.5938 52.75ZM37.375 47H48.75V35.5H37.375V47Z" fill="#1D9A8A"/>
<path d="M80.0312 110.25H62.9688C61.399 110.25 60.125 108.965 60.125 107.375V90.125C60.125 88.5351 61.399 87.25 62.9688 87.25H80.0312C81.6038 87.25 82.875 88.5351 82.875 90.125V107.375C82.875 108.965 81.6038 110.25 80.0312 110.25ZM65.8125 104.5H77.1875V93H65.8125V104.5Z" fill="#0A1E27"/>
<path d="M108.469 110.25H91.4062C89.8337 110.25 88.5625 108.965 88.5625 107.375V90.125C88.5625 88.5351 89.8337 87.25 91.4062 87.25H108.469C110.041 87.25 111.312 88.5351 111.312 90.125V107.375C111.312 108.965 110.041 110.25 108.469 110.25ZM94.25 104.5H105.625V93H94.25V104.5Z" fill="#1D9A8A"/>
<path d="M51.5938 110.25H34.5312C32.9615 110.25 31.6875 108.965 31.6875 107.375V90.125C31.6875 88.5351 32.9615 87.25 34.5312 87.25H51.5938C53.1635 87.25 54.4375 88.5351 54.4375 90.125V107.375C54.4375 108.965 53.1635 110.25 51.5938 110.25ZM37.375 104.5H48.75V93H37.375V104.5Z" fill="#1D9A8A"/>
</svg>
