<svg width="141" height="141" viewBox="0 0 141 141" fill="none" xmlns="http://www.w3.org/2000/svg">
<circle cx="70.5" cy="70.5" r="70" fill="#0A1E27" fill-opacity="0.05"/>
<path d="M75.8996 42.0061C79.0994 38.513 84.2716 37.2164 88.8802 39.1742C93.1668 40.9999 95.9124 45.1916 95.8751 49.8491V49.8721C95.8751 55.165 92.2727 59.6155 87.3967 60.9495C87.3679 61.1536 87.3392 61.3606 87.3018 61.5619C89.8778 61.8695 92.3647 62.5796 94.7222 63.6405C98.9024 60.4924 101.622 55.5071 101.625 49.8836C101.68 42.9002 97.5627 36.6212 91.1342 33.8842C83.3458 30.5665 74.4707 33.4501 69.9771 40.2811C70.1381 40.5226 70.3019 40.7612 70.4543 41.0114C72.3633 41.0516 74.1918 41.3995 75.9024 42.0032L75.8996 42.0061Z" fill="#0A1E27"/>
<path d="M113.082 89.182C111.049 77.268 103.911 67.7862 94.7221 63.6462C92.0656 65.6472 88.8226 66.8921 85.295 67.079C85.2777 67.1077 85.2605 67.1336 85.2461 67.1595C95.9526 67.6511 105.201 77.1645 107.455 90.3291C107.734 91.4992 107.007 92.6809 105.857 92.9569C105.785 92.9741 105.707 92.9885 105.633 93H97.5568C97.7753 93.7302 97.9766 94.4691 98.152 95.2195C98.3417 95.944 98.497 96.795 98.6436 97.6259C98.7327 97.9996 98.7643 98.3734 98.7988 98.75H105.797C105.886 98.75 105.978 98.7442 106.07 98.7356C106.429 98.7011 106.788 98.6436 107.171 98.5574C111.423 97.5425 114.059 93.2559 113.088 89.182H113.082Z" fill="#0A1E27"/>
<path d="M85.2949 67.079C88.8225 66.8921 92.0656 65.6473 94.7221 63.6463C92.3674 62.5854 89.8777 61.8753 87.3017 61.5676C86.948 63.5514 86.2609 65.4029 85.2949 67.079Z" fill="#0A1E27"/>
<path d="M52.7816 60.9955C47.8223 59.7046 44.1538 55.1909 44.1739 49.8348C44.1825 46.7643 45.39 43.8806 47.5693 41.7158C49.7399 39.5595 52.6149 38.375 55.671 38.375H55.7141C58.9571 38.3865 61.9644 39.7751 64.0948 42.0722C65.7939 41.4512 67.6138 41.089 69.5141 41.0258C69.6608 40.7727 69.8131 40.5255 69.9741 40.284C66.8203 35.5834 61.5216 32.6451 55.7314 32.625C51.1199 32.6997 46.7873 34.3874 43.5155 37.6361C40.2438 40.8849 38.4354 45.2089 38.421 49.8146C38.4009 55.4468 41.1091 60.4493 45.2865 63.6146C47.6871 62.5451 50.2286 61.8292 52.8621 61.536C52.8305 61.3577 52.8075 61.1766 52.7816 60.9955Z" fill="#0A1E27"/>
<path d="M70.0863 40.9969C70.2099 40.9969 70.3307 41.0113 70.4514 41.0142C70.3019 40.7641 70.138 40.5254 69.9742 40.2839C69.816 40.5254 69.6637 40.7727 69.5142 41.0257C69.7039 41.0199 69.8908 40.9969 70.0834 40.9969H70.0863Z" fill="#0A1E27"/>
<path d="M41.2588 97.9449C41.3077 97.0479 41.5291 96.2429 41.7131 95.5817L41.8281 95.1562C42.0063 94.4288 42.2104 93.7129 42.4232 93.0057L34.4681 93.0143C33.2692 92.9051 32.3808 91.8384 32.4929 90.6453C32.5016 90.5389 32.5217 90.4326 32.5821 90.1393C34.7498 77.0897 44.0792 67.5476 54.9151 67.1479C54.9036 67.1278 54.8892 67.1077 54.8777 67.0876C51.2811 66.9208 47.9806 65.6587 45.2867 63.6174C36.0436 67.7373 28.9021 77.2047 26.9471 89.0094C26.8637 89.3688 26.8033 89.7339 26.7688 90.1077C26.3663 94.4633 29.5834 98.3359 34.2036 98.7528H41.1438C41.1438 98.7528 41.1438 98.7384 41.1438 98.7327C41.1697 98.4653 41.2071 98.2037 41.2588 97.9478V97.9449Z" fill="#0A1E27"/>
<path d="M52.8652 61.5359C50.2317 61.8291 47.6931 62.545 45.2896 63.6145C47.9834 65.6529 51.2839 66.9179 54.8806 67.0846C53.9059 65.3999 53.2159 63.5311 52.8652 61.5359Z" fill="#0A1E27"/>
<path d="M98.7443 98.7499C98.7098 98.3761 98.6782 97.9995 98.5891 97.6258C98.4424 96.7949 98.2901 95.9439 98.0974 95.2194C97.9221 94.4661 97.7179 93.7273 97.5023 92.9999H97.4908C94.9292 84.6135 89.7887 77.794 83.3084 73.8236C83.2711 73.8006 83.2337 73.7776 83.1963 73.7546C82.3338 73.2314 81.4483 72.7656 80.5427 72.3488C80.5139 72.3344 80.4852 72.3171 80.4593 72.3028C84.7344 69.1374 87.5146 64.0918 87.5146 58.3849C87.5146 48.7968 79.6974 41.0256 70.0547 41.0256C60.4119 41.0256 52.5948 48.7968 52.5948 58.3849C52.5948 64.339 55.6136 69.5916 60.2078 72.7168C59.9951 72.573 59.7651 72.4494 59.5609 72.297C58.6611 72.7053 57.7842 73.171 56.9274 73.6799C56.7981 73.7575 56.6687 73.838 56.5393 73.9185C55.7171 74.4274 54.9121 74.9736 54.1387 75.5688C54.0956 75.6004 54.0524 75.6291 54.0093 75.6636C53.2388 76.2645 52.4999 76.92 51.7812 77.6043C51.5972 77.7796 51.4189 77.955 51.2378 78.1361C49.7859 79.588 48.4491 81.198 47.2588 82.9633C47.1812 83.0783 47.1036 83.1933 47.0259 83.3111C45.1284 86.2005 43.5989 89.4579 42.5467 93.0028H42.4834C42.2678 93.71 42.0637 94.4259 41.8883 95.1533L41.7733 95.5788C41.5893 96.24 41.3651 97.0479 41.3191 97.942C41.2673 98.2008 41.2299 98.4624 41.2041 98.7269C41.2041 98.7326 41.2041 98.7413 41.2041 98.747C40.8131 103.094 44.0244 106.958 48.6388 107.372H91.4246C91.5252 107.372 91.6287 107.366 91.7293 107.355C92.0628 107.317 92.3992 107.263 92.7241 107.182C94.7854 106.688 96.5306 105.42 97.6374 103.614C98.5431 102.134 98.9053 100.438 98.7501 98.747L98.7443 98.7499ZM70.0547 47.0631C76.3538 47.0631 81.4771 52.1433 81.4771 58.3849C81.4771 64.6265 76.3538 69.7066 70.0547 69.7066C63.7556 69.7066 58.6323 64.6265 58.6323 58.3849C58.6323 52.1433 63.7556 47.0631 70.0547 47.0631ZM63.4249 74.4418C63.4249 74.4418 63.4307 74.4619 63.4336 74.4705C62.3842 74.0508 61.4096 73.4988 60.4752 72.8921C61.4009 73.4988 62.3871 74.0163 63.4249 74.4418ZM44.7547 98.7499H44.7001C45.0336 98.7499 45.3527 98.6924 45.6517 98.586C45.3671 98.6838 45.0709 98.7499 44.7547 98.7499ZM91.4217 101.596C91.3757 101.608 91.3326 101.616 91.2837 101.625L48.8976 101.636H48.8429C47.6441 101.527 46.7557 100.461 46.8678 99.2674C46.8764 99.161 46.8966 99.0546 46.9224 98.9483C46.9742 98.7326 46.9972 98.5141 46.9972 98.2899C46.9972 98.0599 47.1122 97.6286 47.2243 97.229C47.2071 97.2635 47.1812 97.2923 47.1639 97.3239C47.2071 97.252 47.2272 97.1658 47.2617 97.091L47.4054 96.5591C48.7251 91.1484 51.2551 86.4334 54.5728 82.8684C54.6246 82.8109 54.6849 82.7678 54.7396 82.7131C58.0142 79.2545 62.0306 76.897 66.4121 76.0863C66.4264 76.0863 66.4379 76.0776 66.4494 76.0748C66.6306 76.0403 66.8117 76.0259 66.9899 76C67.3608 75.9396 67.7949 75.8706 67.8668 75.8649C67.9703 75.8563 68.0451 75.8476 68.1256 75.839C68.1543 75.839 68.1802 75.8333 68.2089 75.8304C68.2463 75.8275 68.2808 75.8218 68.3182 75.8189C68.6459 75.7815 68.9363 75.7499 69.8218 75.7499C69.8362 75.7499 69.8362 75.7413 69.8477 75.7413C69.8477 75.7413 69.8506 75.7413 69.8534 75.7413C69.8879 75.7413 69.9224 75.747 69.9598 75.747C69.9627 75.747 69.9684 75.747 69.9713 75.747C69.9857 75.747 70.0001 75.747 70.0173 75.747C70.0173 75.747 70.0231 75.747 70.0259 75.747C70.0374 75.747 70.0461 75.747 70.0576 75.747C70.0633 75.747 70.0719 75.747 70.0777 75.747C70.0719 75.747 70.0662 75.7499 70.0633 75.7499C70.0633 75.7499 70.0604 75.747 70.0576 75.747L70.0719 75.7499C71.1443 75.7441 72.3748 75.8505 73.5363 76.0748C74.4621 76.2444 75.3591 76.5175 76.2446 76.8395C76.8052 77.0321 77.3457 77.2736 77.8891 77.518C78.0271 77.5813 78.1708 77.6244 78.3059 77.6905C78.4152 77.7394 78.5129 77.8113 78.6222 77.863C79.2949 78.1908 79.9562 78.5386 80.5973 78.9411C80.8474 79.0964 81.0861 79.2746 81.3304 79.4385C81.9198 79.841 82.5121 80.2349 83.0698 80.6949C83.8346 81.3216 84.5677 82.0059 85.2663 82.7361C85.4877 82.9719 85.6889 83.2335 85.9046 83.4779C86.4767 84.1219 87.0258 84.7918 87.5433 85.5048C87.7043 85.729 87.8538 85.959 88.0091 86.189C88.5783 87.0199 89.1044 87.891 89.5961 88.8024C89.6708 88.9404 89.7456 89.0784 89.8174 89.2193C90.9588 91.4215 91.8932 93.8135 92.5142 96.401C92.5286 96.4556 92.5516 96.5074 92.5631 96.562C92.6349 96.861 92.7643 97.1313 92.9167 97.3814C92.8046 97.1974 92.6867 97.0163 92.6148 96.8064C92.7614 97.4015 92.8764 98.0225 92.9828 98.6349C92.9943 98.6924 93.0346 98.9109 93.0461 98.9655C93.3278 100.136 92.6033 101.317 91.4246 101.602L91.4217 101.596ZM95.3001 98.7499C94.3226 98.7499 93.4744 98.2353 92.9569 97.459C93.4773 98.2468 94.3657 98.7499 95.3518 98.7499H95.3001Z" fill="#1D9A8A"/>
</svg>
