<svg width="141" height="141" viewBox="0 0 141 141" fill="none" xmlns="http://www.w3.org/2000/svg">
<circle cx="70.5" cy="70.5" r="70" fill="#0A1E27" fill-opacity="0.05"/>
<path d="M59.9375 92C41.7071 92 26.875 77.1679 26.875 58.9375C26.875 40.7071 41.7071 25.875 59.9375 25.875C78.1679 25.875 93 40.7071 93 58.9375C93 77.1679 78.1679 92 59.9375 92ZM59.9375 31.625C44.8783 31.625 32.625 43.8783 32.625 58.9375C32.625 73.9967 44.8783 86.25 59.9375 86.25C74.9967 86.25 87.25 73.9967 87.25 58.9375C87.25 43.8783 74.9967 31.625 59.9375 31.625Z" fill="#0A1E27"/>
<path d="M110.25 112.125C109.514 112.125 108.778 111.843 108.218 111.283L79.4676 82.5326C78.3435 81.4085 78.3435 79.5915 79.4676 78.4674C80.5917 77.3432 82.4087 77.3432 83.5329 78.4674L112.283 107.217C113.407 108.341 113.407 110.158 112.283 111.283C111.722 111.843 110.986 112.125 110.25 112.125Z" fill="#0A1E27"/>
<path d="M59.9373 72.2141C46.4392 72.2141 36.2617 66.5044 36.2617 58.9374C36.2617 51.3704 46.4421 45.6606 59.9373 45.6606C73.4326 45.6606 83.613 51.3675 83.613 58.9374C83.613 66.5073 73.4355 72.2141 59.9373 72.2141ZM59.9373 51.4106C48.8312 51.4106 42.0117 55.7921 42.0117 58.9374C42.0117 62.0826 48.8312 66.4641 59.9373 66.4641C71.0435 66.4641 77.863 62.0826 77.863 58.9374C77.863 55.7921 71.0435 51.4106 59.9373 51.4106Z" fill="#1D9A8A"/>
<path d="M59.9377 67.7551C55.0761 67.7551 51.1201 63.7991 51.1201 58.9375C51.1201 54.0759 55.0761 50.1199 59.9377 50.1199C64.7994 50.1199 68.7554 54.0759 68.7554 58.9375C68.7554 63.7991 64.7994 67.7551 59.9377 67.7551ZM59.9377 55.8699C58.2472 55.8699 56.8701 57.247 56.8701 58.9375C56.8701 60.628 58.2472 62.0051 59.9377 62.0051C61.6282 62.0051 63.0054 60.628 63.0054 58.9375C63.0054 57.247 61.6282 55.8699 59.9377 55.8699Z" fill="#1D9A8A"/>
</svg>
