<svg width="175" height="79" viewBox="0 0 175 79" fill="none" xmlns="http://www.w3.org/2000/svg">
<path d="M62.5557 18.6844H74.4034V22.2278H66.8497V25.9593H73.9793V29.449H66.8497V33.6638H74.6421V37.2072H62.5561V18.6844H62.5557Z" fill="white"/>
<path d="M75.8597 30.6037C75.8597 26.2016 79.0402 23.7314 83.1215 23.7314C85.1624 23.7314 86.62 24.349 87.6274 25.0738L86.6996 28.4026C85.931 27.7316 84.5795 27.2215 83.3599 27.2215C81.4778 27.2215 80.1525 28.4564 80.1525 30.5772C80.1525 32.6712 81.4513 34.0131 83.4656 34.0131C84.844 34.0131 85.9306 33.3955 86.6992 32.7245L87.7062 36.0798C86.6992 36.8318 85.2681 37.5028 83.0946 37.5028C78.8275 37.5028 75.8589 34.8718 75.8589 30.6037H75.8597Z" fill="white"/>
<path d="M88.8457 30.6305C88.8457 26.3351 91.9731 23.7045 96.0814 23.7045C100.216 23.7045 103.317 26.3351 103.317 30.6305C103.317 34.8987 100.216 37.5028 96.0814 37.5028C91.9731 37.5028 88.8457 34.8987 88.8457 30.6305ZM99.0231 30.5768C99.0231 28.6172 97.9097 27.1942 96.0814 27.1942C94.2263 27.1942 93.1393 28.6168 93.1393 30.5768C93.1393 32.5633 94.2263 34.0127 96.0814 34.0127C97.9101 34.0127 99.0231 32.5629 99.0231 30.5768Z" fill="white"/>
<path d="M103.237 23.9997H107.663L109.836 32.1875L112.275 23.9997H115.72L118.158 32.1875L120.332 23.9997H124.758L120.464 37.2072H116.436L113.997 29.0199L111.559 37.2072H107.531L103.237 23.9997Z" fill="white"/>
<path d="M125.367 33.2884C125.367 30.3354 128.017 29.3423 130.429 29.2348L133.716 29.1005V28.8053C133.716 27.4092 132.736 26.7382 131.066 26.7382C129.343 26.7382 127.699 27.5435 127.037 27.9731L125.924 25.0465C127.17 24.4293 129.078 23.7045 131.622 23.7045C135.598 23.7045 137.957 25.5029 137.957 29.7446V37.2072H133.875V35.8111C133.107 36.6971 132.02 37.5024 130.112 37.5024C127.806 37.5024 125.368 36.2402 125.368 33.2876L125.367 33.2884ZM133.743 33.503V31.409L131.649 31.5165C130.35 31.5702 129.581 32.1341 129.581 33.1272C129.581 34.1471 130.376 34.7643 131.436 34.7643C132.47 34.7643 133.371 34.1467 133.742 33.5026L133.743 33.503Z" fill="white"/>
<path d="M138.115 23.9997H142.647L145.43 31.9725L148.213 23.9997H152.745L147.417 37.2072H143.442L138.114 23.9997H138.115Z" fill="white"/>
<path d="M152.373 30.6305C152.373 26.2012 155.527 23.7045 159.37 23.7045C163.292 23.7045 165.943 26.2549 165.943 30.2543C165.943 30.7645 165.89 31.4892 165.863 31.6773H156.666C156.852 33.3145 158.203 34.3348 159.9 34.3348C161.278 34.3348 162.63 33.9052 163.823 33.0462L165.492 35.4084C164.194 36.5631 162.312 37.5028 159.476 37.5028C155.235 37.5028 152.373 34.9524 152.373 30.6305ZM159.343 26.6307C157.594 26.6307 156.746 27.9458 156.666 29.1811H161.941C161.914 28 161.066 26.6307 159.343 26.6307Z" fill="white"/>
<path d="M71.8599 59.0243C70.752 59.9375 69.284 60.433 67.5064 60.433C64.389 60.433 62.6114 58.3981 61.7612 57.4063L63.2297 55.7101C64.1313 56.9368 65.8056 58.2935 67.7379 58.2935C69.6703 58.2935 71.2159 57.1714 71.2159 55.2667C71.2159 53.3881 69.2321 52.6573 68.3305 52.2921C67.4027 51.9269 66.1662 51.431 65.4965 51.0918C65.1102 50.909 64.3629 50.5177 63.7189 49.813C63.0745 49.1346 62.5596 48.1428 62.5596 46.682C62.5596 45.2211 63.2293 44.0204 64.1824 43.2118C65.1616 42.3768 66.5525 41.8809 68.2782 41.8809C71.1894 41.8809 72.8898 43.6813 73.379 44.2033L72.0649 45.9251C71.189 44.9854 69.901 43.9944 68.1492 43.9944C66.3973 43.9944 65.0579 44.8294 65.0579 46.4992C65.0579 48.1689 66.2691 48.7955 67.3508 49.2389L70.6226 50.622C70.9574 50.7783 72.0396 51.3784 72.6321 52.0828C73.1989 52.7872 73.7138 53.7529 73.7138 55.11C73.7138 56.6754 73.0184 58.0585 71.8591 59.0239L71.8599 59.0243Z" fill="#1D9A8A"/>
<path d="M82.2949 59.99C82.2949 59.99 81.3418 60.4074 80.0534 60.4074C78.765 60.4074 77.9671 59.9115 77.4513 59.1285C76.9364 58.3456 76.8331 57.3802 76.8331 55.423V49.7612H75.0298V47.752H76.8331V44.0465H79.3061V47.752H82.243V49.7612H79.3061V55.3709C79.3061 56.4144 79.3318 57.1192 79.6156 57.6412C79.8472 58.0325 80.182 58.2674 80.8779 58.2674C81.5994 58.2674 82.1405 57.9803 82.1405 57.9803L82.2953 59.9896L82.2949 59.99Z" fill="#1D9A8A"/>
<path d="M94.3772 60.1203H91.9813L91.9556 58.5548C91.466 59.0764 90.3067 60.4074 88.0656 60.4074C85.7984 60.4074 83.8403 58.9726 83.8403 56.5716C83.8403 54.145 85.7984 52.9183 88.6324 52.788L91.9041 52.6577V52.1618C91.9041 50.2832 90.6415 49.3439 88.8643 49.3439C87.0872 49.3439 85.5926 50.1525 85.1805 50.4135L84.4337 48.7434C85.3353 48.2218 86.9843 47.491 89.0191 47.491C91.0539 47.491 92.2394 48.0651 93.0639 48.9001C93.8883 49.7612 94.378 50.8052 94.378 52.9183V60.1199L94.3772 60.1203ZM91.9299 54.1711L89.0702 54.3539C87.0864 54.4581 86.288 55.3192 86.288 56.4935C86.288 57.6677 87.1893 58.633 88.8125 58.633C90.41 58.633 91.466 57.5374 91.9299 56.8326V54.1711Z" fill="#1D9A8A"/>
<path d="M103.214 43.9687C103.214 43.9687 102.519 43.7338 101.823 43.7338C100.2 43.7338 99.9423 44.9605 99.9423 46.3697V47.7524H102.853V49.7616H99.9423V60.1203H97.4946V49.7616H95.7432V47.7524H97.4946V46.5C97.4946 44.882 97.8041 43.8384 98.3191 43.1858C98.8606 42.5075 99.839 41.8292 101.256 41.8292C102.674 41.8292 103.369 42.1162 103.369 42.1162L103.214 43.9687Z" fill="#1D9A8A"/>
<path d="M111.819 43.9687C111.819 43.9687 111.123 43.7338 110.427 43.7338C108.804 43.7338 108.547 44.9605 108.547 46.3697V47.7524H111.458V49.7616H108.547V60.1203H106.1V49.7616H104.348V47.7524H106.1V46.5C106.1 44.882 106.409 43.8384 106.924 43.1858C107.465 42.5075 108.443 41.8292 109.861 41.8292C111.278 41.8292 111.973 42.1162 111.973 42.1162L111.819 43.9687Z" fill="#1D9A8A"/>
<path d="M114.549 45.1955C113.596 45.1955 112.926 44.5428 112.926 43.656C112.926 42.7693 113.596 42.1166 114.549 42.1166C115.477 42.1166 116.147 42.7689 116.147 43.656C116.147 44.5432 115.477 45.1955 114.549 45.1955ZM115.786 60.1203H113.313V47.7263H115.786V60.1203Z" fill="#1D9A8A"/>
<path d="M129.929 60.1203H127.456V53.2057C127.456 51.1183 127.096 49.5528 124.906 49.5528C122.613 49.5528 121.763 51.5099 121.763 53.8844V60.1203H119.29V47.7263H121.763L121.738 49.6835H121.815C122.459 48.4571 123.773 47.4914 125.55 47.4914C129.028 47.4914 129.93 49.8138 129.93 52.7884V60.1207L129.929 60.1203Z" fill="#1D9A8A"/>
<path d="M145.078 57.5109C145.078 60.2506 144.64 61.764 143.738 62.8604C142.837 63.9825 141.317 65.2349 138.277 65.2349C135.263 65.2349 133.176 63.643 132.815 63.382L133.975 61.6337C134.619 62.2078 136.525 63.1996 138.355 63.1996C140.184 63.1996 141.214 62.4688 141.704 61.8426C142.193 61.2424 142.631 60.0686 142.631 58.3724V57.7462H142.58C141.755 58.9986 140.364 59.964 138.303 59.964C135.16 59.964 132.403 57.6677 132.403 53.7281C132.403 49.7885 135.16 47.4918 138.303 47.4918C140.441 47.4918 141.858 48.5357 142.58 49.6839H142.657L142.631 47.7267H145.079V57.5113L145.078 57.5109ZM138.818 49.5007C136.319 49.5007 134.927 51.3792 134.927 53.7277C134.927 56.0761 136.319 57.9282 138.818 57.9282C141.342 57.9282 142.708 56.0757 142.708 53.7277C142.708 51.3797 141.343 49.5007 138.818 49.5007Z" fill="#1D9A8A"/>
<path d="M52.1413 69.3553H30.8992C18.8863 69.3553 9.14819 59.4917 9.14819 47.3249V23.3682C9.14819 15.6723 15.3078 9.43356 22.9061 9.43356H51.3465C51.9527 9.43356 52.4444 9.9315 52.4444 10.5455V17.5871C52.4444 18.2011 51.9527 18.699 51.3465 18.699H22.9073C20.3604 18.699 18.2958 20.7902 18.2958 23.3699V47.3249C18.2958 54.3751 23.9384 60.0902 30.8992 60.0902H52.1413C52.7475 60.0902 53.2391 60.5882 53.2391 61.2021V68.2438C53.2391 68.8577 52.7475 69.3557 52.1413 69.3557V69.3553Z" fill="white"/>
<path d="M48.7896 43.356C48.571 48.9791 42.8443 51.5454 38.8031 49.9453C35.6102 49.03 32.4747 46.3424 29.6676 45.6804C27.8575 45.2264 25.8021 45.4076 23.5354 46.1747C23.0952 46.3591 22.6916 45.6995 22.9714 45.2602C26.2809 39.6253 32.5985 39.9339 37.352 42.7391C41.4655 44.7 44.1045 46.6327 47.9334 42.8768C48.2522 42.5201 48.8174 42.8426 48.7896 43.356Z" fill="#1D9A8A"/>
<path d="M48.7896 30.9738C48.571 36.5969 42.8443 39.1632 38.8031 37.5631C35.6102 36.6478 32.4747 33.9602 29.6676 33.2982C27.8575 32.8442 25.8021 33.0254 23.5354 33.7925C23.0952 33.9769 22.6916 33.3173 22.9714 32.878C26.2809 27.2431 32.5985 27.5517 37.352 30.3569C41.4655 32.3178 44.1045 34.2505 47.9334 30.4945C48.2522 30.1379 48.8174 30.4603 48.7896 30.9738Z" fill="#1D9A8A"/>
</svg>
