<svg width="452" height="625" viewBox="0 0 452 625" fill="none" xmlns="http://www.w3.org/2000/svg">
<mask id="path-1-inside-1_295_556" fill="white">
<path d="M355.115 53.375C355.115 63.3161 363.174 71.375 373.115 71.375H433.846C443.787 71.375 451.846 79.4339 451.846 89.375V606.858C451.846 616.8 443.787 624.858 433.846 624.858H18C8.05886 624.858 0 616.8 0 606.858V18C0 8.05886 8.05887 0 18 0H337.115C347.056 0 355.115 8.05887 355.115 18V53.375Z"/>
</mask>
<path d="M373.115 71.375V72.7255H433.846V71.375V70.0245H373.115V71.375ZM451.846 89.375H450.495V606.858H451.846H453.196V89.375H451.846ZM433.846 624.858V623.508H18V624.858V626.209H433.846V624.858ZM0 606.858H1.35052V18H0H-1.35052V606.858H0ZM18 0V1.35052H337.115V0V-1.35052H18V0ZM355.115 18H353.765V53.375H355.115H356.466V18H355.115ZM337.115 0V1.35052C346.31 1.35052 353.765 8.80474 353.765 18H355.115H356.466C356.466 7.313 347.802 -1.35052 337.115 -1.35052V0ZM0 18H1.35052C1.35052 8.80473 8.80474 1.35052 18 1.35052V0V-1.35052C7.31301 -1.35052 -1.35052 7.31299 -1.35052 18H0ZM18 624.858V623.508C8.80473 623.508 1.35052 616.054 1.35052 606.858H0H-1.35052C-1.35052 617.545 7.31299 626.209 18 626.209V624.858ZM451.846 606.858H450.495C450.495 616.054 443.041 623.508 433.846 623.508V624.858V626.209C444.533 626.209 453.196 617.545 453.196 606.858H451.846ZM433.846 71.375V72.7255C443.041 72.7255 450.495 80.1797 450.495 89.375H451.846H453.196C453.196 78.688 444.533 70.0245 433.846 70.0245V71.375ZM373.115 71.375V70.0245C363.92 70.0245 356.466 62.5703 356.466 53.375H355.115H353.765C353.765 64.062 362.428 72.7255 373.115 72.7255V71.375Z" fill="#0A1E27" mask="url(#path-1-inside-1_295_556)"/>
</svg>
