<svg width="108" height="39" viewBox="0 0 108 39" fill="none" xmlns="http://www.w3.org/2000/svg">
<path d="M10 0.5H98C103.247 0.5 107.5 4.7533 107.5 10V38.5H10C4.7533 38.5 0.5 34.2467 0.5 29V10C0.5 4.7533 4.7533 0.5 10 0.5Z" stroke="#1D9A8A"/>
<path d="M27.963 25.24C23.883 25.24 20.923 22.36 20.923 18.14C20.923 13.86 23.963 11 27.963 11C30.383 11 32.023 12.06 32.883 12.92L32.103 14.06C31.503 13.26 29.883 12.32 27.903 12.32C24.783 12.32 22.463 14.58 22.463 18.08C22.463 21.52 24.723 23.92 27.943 23.92C29.823 23.92 31.263 23.1 32.223 22.06L33.003 23.14C32.083 24.16 30.463 25.24 27.963 25.24ZM39.3368 25.2C36.5968 25.2 34.4568 23.22 34.4568 20.34C34.4568 17.48 36.5968 15.44 39.3368 15.44C42.0968 15.44 44.2568 17.48 44.2568 20.34C44.2568 23.22 42.0968 25.2 39.3368 25.2ZM39.3368 23.92C41.4368 23.92 42.7368 22.32 42.7368 20.32C42.7368 18.3 41.4368 16.72 39.3368 16.72C37.2568 16.72 35.9768 18.3 35.9768 20.32C35.9768 22.32 37.2568 23.92 39.3368 23.92ZM46.4059 25V15.64H47.8659V17.16C48.4459 16.02 49.6259 15.44 51.0259 15.44C53.5059 15.44 54.1859 17.16 54.1859 19.32V25H52.7059V19.42C52.7059 17.68 52.0659 16.72 50.6059 16.72C48.5259 16.72 47.8859 18.7 47.8859 20.04V25H46.4059ZM59.5137 25.2C57.7337 25.2 57.2737 23.96 57.2737 21.72V16.88H55.8737V15.64H57.2737V12.74H58.7537V15.64H61.0737V16.88H58.7537V21.84C58.7537 23.48 59.0337 23.92 59.9937 23.92C60.3737 23.92 60.7537 23.82 61.0537 23.7L61.1337 24.9C60.6937 25.1 60.1537 25.2 59.5137 25.2ZM65.7595 25.2C63.9795 25.2 62.5395 24.06 62.5395 22.34C62.5395 20.74 63.7195 19.58 66.2795 19.46L68.8395 19.34V19C68.8395 17.42 67.7595 16.72 66.3395 16.72C65.2195 16.72 64.1395 17.22 63.5795 17.62L63.0595 16.36C63.6795 16 64.9195 15.44 66.3995 15.44C69.0795 15.44 70.3195 16.78 70.3195 19.5V25H68.8595V23.82C68.4595 24.34 67.3595 25.2 65.7595 25.2ZM66.0395 23.96C67.3195 23.96 68.3995 23.12 68.8395 22.52V20.5L66.3995 20.62C64.6595 20.7 64.0395 21.36 64.0395 22.32C64.0395 23.26 64.8395 23.96 66.0395 23.96ZM77.2865 25.2C74.5865 25.2 72.3865 23.3 72.3865 20.34C72.3865 17.36 74.6465 15.44 77.2865 15.44C78.7865 15.44 80.0265 16.06 80.7065 16.74L80.0465 17.86C79.3265 17.2 78.3865 16.72 77.2665 16.72C75.3465 16.72 73.9065 18.14 73.9065 20.3C73.9065 22.44 75.3065 23.92 77.3065 23.92C78.5265 23.92 79.5265 23.38 80.1665 22.58L80.8465 23.7C80.1265 24.52 78.8865 25.2 77.2865 25.2ZM85.8418 25.2C84.0618 25.2 83.6018 23.96 83.6018 21.72V16.88H82.2018V15.64H83.6018V12.74H85.0818V15.64H87.4018V16.88H85.0818V21.84C85.0818 23.48 85.3618 23.92 86.3218 23.92C86.7018 23.92 87.0818 23.82 87.3818 23.7L87.4618 24.9C87.0218 25.1 86.4818 25.2 85.8418 25.2Z" fill="#D2EBE7"/>
</svg>
